<svg xmlns="http://www.w3.org/2000/svg" viewBox="0 0 24 24" fill="white">
  <path d="M12 .5C5.73.5.75 5.48.75 11.75c0 5.08 3.29 9.39 7.86 10.91.57.1.78-.25.78-.56v-2.17c-3.2.7-3.88-1.54-3.88-1.54-.52-1.33-1.27-1.68-1.27-1.68-1.04-.71.08-.7.08-.7 1.15.08 1.75 1.18 1.75 1.18 1.02 1.75 2.67 1.25 3.32.96.1-.74.4-1.25.72-1.54-2.55-.29-5.24-1.28-5.24-5.71 0-1.26.45-2.3 1.18-3.11-.12-.29-.51-1.47.11-3.07 0 0 .96-.31 3.14 1.19a10.9 10.9 0 015.72 0c2.18-1.5 3.14-1.19 3.14-1.19.62 1.6.23 2.78.11 3.07.73.81 1.18 1.85 1.18 3.11 0 4.44-2.69 5.41-5.25 5.7.41.35.77 1.04.77 2.1v3.12c0 .31.21.67.79.56A11.26 11.26 0 0023.25 11.75C23.25 5.48 18.27.5 12 .5z"/>
</svg>